# Blender 4.3.0
# www.blender.org
mtllib 4-way Barricade.mtl
o BarricadePlus_Baked
v 0.060476 0.483963 -1.814863
v 0.060476 -0.000000 -1.814863
v 0.030257 -0.000000 -1.814863
v 0.030257 0.483963 -1.814863
v 0.060476 -0.000000 -1.935854
v 0.060476 0.604954 -1.935854
v 0.030257 0.604954 -1.935854
v 0.030257 -0.000000 -1.935854
v 0.060515 0.604955 1.935854
v 0.030257 0.604955 1.935854
v 0.060515 0.000000 1.935854
v 0.030257 0.000000 1.935854
v 0.060515 0.000000 1.814863
v 0.060515 0.483964 1.814863
v 0.030257 0.483964 1.814863
v 0.030257 0.000000 1.814863
v 0.060476 -0.000000 -2.419818
v 0.060476 0.725945 -2.419818
v 0.060476 0.967927 -2.177836
v 0.060476 0.967927 -0.362973
v 0.060476 0.725945 -0.120991
v 0.060515 0.725945 0.120991
v 0.060515 0.967927 0.362973
v 0.060515 0.967927 2.177836
v 0.060515 0.725946 2.419818
v 0.060515 0.000000 2.419818
v 0.060515 0.000000 0.060476
v 0.060476 -0.000000 -0.060515
v -0.060476 0.000000 2.419818
v -0.060476 0.000000 1.935854
v -0.030257 0.000000 1.935854
v -0.030257 0.000000 1.814863
v -0.060476 0.000000 1.814863
v -0.060476 0.000000 0.060515
v -0.060476 0.604955 1.935854
v -0.030257 0.604955 1.935854
v -0.060515 0.604954 -1.935854
v -0.030257 0.604954 -1.935854
v -0.060515 -0.000000 -1.935854
v -0.030257 -0.000000 -1.935854
v -0.060515 -0.000000 -1.814863
v -0.060515 0.483963 -1.814863
v -0.030257 0.483963 -1.814863
v -0.030257 -0.000000 -1.814863
v -0.060476 0.483964 1.814863
v -0.030257 0.483964 1.814863
v -0.060515 -0.000000 -0.060476
v -0.060515 -0.000000 -2.419818
v -0.060476 0.725946 2.419818
v -0.060476 0.967927 2.177836
v -0.060476 0.967927 0.362973
v -0.060476 0.725945 0.120991
v -0.060515 0.725945 -0.120991
v -0.060515 0.967927 -0.362973
v -0.060515 0.967927 -2.177836
v -0.060515 0.725945 -2.419818
v -0.060476 0.362973 0.060514
v -1.814863 0.000000 0.060515
v -1.814863 0.483964 0.060514
v -1.814863 0.483964 0.030257
v -1.814863 0.000000 0.030257
v -0.060476 0.483964 0.060514
v -0.060476 0.483964 0.030257
v -0.060476 0.604954 0.060514
v -1.935854 0.604954 0.060514
v -1.935854 0.604954 0.030257
v -0.060476 0.604954 0.030257
v -1.935854 0.000000 0.060515
v -1.935854 0.000000 0.030257
v 1.935854 0.000000 0.060476
v 1.935854 0.604954 0.060476
v 1.935854 0.604954 0.030257
v 1.935854 0.000000 0.030257
v 0.060515 0.604954 0.060476
v 0.060515 0.604954 0.030257
v 0.060515 0.483964 0.060476
v 1.814863 0.483964 0.060476
v 1.814863 0.483964 0.030257
v 0.060515 0.483964 0.030257
v 1.814863 0.000000 0.060476
v 1.814863 0.000000 0.030257
v -0.060515 0.362973 -0.060476
v -0.060515 0.483964 -0.060476
v -0.060515 0.483964 -0.030257
v -0.060515 0.604954 -0.030257
v -0.060515 0.604954 -0.060476
v -0.060515 0.725945 -0.060476
v -0.060476 0.725945 0.060514
v 2.419818 0.000000 0.060476
v 2.419818 0.725945 0.060476
v 2.177836 0.967927 0.060476
v 0.362973 0.967927 0.060476
v 0.120991 0.725945 0.060476
v 0.060515 0.725945 0.060476
v 0.060515 0.362973 0.060476
v -0.120991 0.725945 0.060514
v -0.362973 0.967927 0.060514
v -2.177836 0.967927 0.060514
v -2.419818 0.725945 0.060514
v -2.419818 0.000000 0.060515
v 0.060476 0.725945 -0.060515
v 0.060476 0.604954 -0.060515
v 0.060476 0.604954 -0.030257
v 0.060476 0.483964 -0.030257
v 0.060476 0.483964 -0.060515
v 0.060476 0.362973 -0.060515
v 1.935854 0.604954 -0.060515
v 1.935854 0.604954 -0.030257
v 1.935854 -0.000000 -0.060515
v 1.935854 -0.000000 -0.030257
v 1.814863 -0.000000 -0.060515
v 1.814863 0.483964 -0.060515
v 1.814863 0.483964 -0.030257
v 1.814863 -0.000000 -0.030257
v -1.814863 0.483964 -0.060476
v -1.814863 0.483964 -0.030257
v -1.814863 -0.000000 -0.060476
v -1.814863 -0.000000 -0.030257
v -1.935854 -0.000000 -0.060476
v -1.935854 0.604954 -0.060476
v -1.935854 0.604954 -0.030257
v -1.935854 -0.000000 -0.030257
v -2.419818 -0.000000 -0.060476
v 2.419818 -0.000000 -0.060515
v 0.120991 0.725945 -0.060515
v 0.362973 0.967927 -0.060515
v 2.177836 0.967927 -0.060515
v 2.419818 0.725945 -0.060515
v -2.419818 0.725945 -0.060476
v -2.177836 0.967927 -0.060476
v -0.362973 0.967927 -0.060476
v -0.120991 0.725945 -0.060476
vn -0.0000 -0.0000 1.0000
vn -1.0000 -0.0000 -0.0000
vn -0.0000 -1.0000 -0.0000
vn -0.0000 -0.0000 -1.0000
vn 1.0000 -0.0000 -0.0000
vn 1.0000 -0.0002 -0.0000
vn 1.0000 -0.0001 -0.0000
vn -0.0000 1.0000 -0.0000
vn -1.0000 0.0002 -0.0000
vn -1.0000 -0.0002 -0.0000
vn -1.0000 -0.0001 -0.0000
vn -0.0000 0.7071 0.7071
vn -0.0000 0.7071 -0.7071
vn 1.0000 -0.0000 -0.0001
vn -0.0000 0.0001 1.0000
vn -0.7071 0.7071 -0.0000
vn -0.0000 0.0001 -1.0000
vn -1.0000 -0.0000 0.0001
vn -1.0000 -0.0000 -0.0001
vn 0.7071 0.7071 -0.0000
vn 1.0000 -0.0002 -0.0002
vn 1.0000 -0.0000 0.0001
vn 1.0000 -0.0001 -0.0002
vn -0.0000 -0.0001 1.0000
vn -0.0000 -0.0001 -1.0000
vn -1.0000 -0.0000 0.0003
vn -1.0000 0.0002 0.0002
vn -1.0000 0.0001 0.0003
vt 0.650000 0.683333
vt 0.666667 0.783333
vt 0.650000 0.783333
vt 0.283333 0.516667
vt 0.266667 0.533333
vt 0.266667 0.000000
vt 0.983334 -0.000000
vt 0.987500 0.533333
vt 0.983334 0.533333
vt 0.220833 0.666667
vt 0.225000 0.733333
vt 0.220833 0.733333
vt 0.233333 0.733333
vt 0.229167 0.666667
vt 0.233333 0.666667
vt 0.700000 0.500000
vt 0.700000 -0.000000
vt 0.716667 0.258333
vt 0.050000 0.600000
vt 0.033333 0.350000
vt 0.033333 0.316667
vt 0.245833 0.733333
vt 0.241667 0.666667
vt 0.245833 0.666667
vt 0.225000 0.666667
vt 0.229167 0.733333
vt 0.991667 0.500000
vt 0.995834 0.000000
vt 0.995834 0.500000
vt 0.125000 0.750000
vt 0.120833 0.666667
vt 0.125000 0.666667
vt 0.512500 0.683333
vt 0.529167 0.650000
vt 0.529167 0.683333
vt 0.433334 0.783333
vt 0.450000 0.683333
vt 0.450000 0.783333
vt 0.691667 0.650000
vt 0.695834 0.733333
vt 0.691667 0.733333
vt 0.870834 0.758333
vt 0.879167 0.758333
vt 0.866667 0.825000
vt 0.991667 0.533333
vt 0.987500 -0.000000
vt 0.991667 -0.000000
vt 0.966667 0.500000
vt 0.962500 1.000000
vt 0.962500 0.500000
vt 0.183333 0.066667
vt 0.166667 0.666667
vt 0.166667 0.350000
vt 0.766667 0.500000
vt 0.766667 -0.000000
vt 0.783334 0.258333
vt 0.250000 0.750000
vt 0.250000 0.666667
vt 0.666667 0.650000
vt 0.650000 0.650000
vt 0.545834 0.650000
vt 0.545834 0.683333
vt 0.895834 0.566667
vt 0.887500 0.566667
vt 0.900000 0.500000
vt 0.150000 0.666667
vt 0.133333 0.700000
vt 0.133333 0.666667
vt 0.616667 0.900000
vt 0.600000 0.650000
vt 0.616667 0.650000
vt 0.020833 0.666667
vt 0.025000 0.750000
vt 0.020833 0.750000
vt 0.450000 0.650000
vt 0.433334 0.683333
vt 0.433334 0.650000
vt 0.633334 0.650000
vt 0.633334 0.900000
vt 0.350000 -0.000000
vt 0.366667 0.516667
vt 0.350000 0.533333
vt 0.025000 0.683333
vt 0.041667 0.666667
vt 0.041667 0.683333
vt 0.675000 0.700000
vt 0.675000 0.650000
vt 0.462500 0.700000
vt 0.479167 0.650000
vt 0.479167 0.700000
vt 0.212500 0.683333
vt 0.212500 0.666667
vt 0.716667 0.516667
vt 0.700000 0.758333
vt 0.566667 0.900000
vt 0.583334 0.650000
vt 0.583334 0.900000
vt 0.016667 0.666667
vt 0.454167 0.650000
vt 0.458334 0.891667
vt 0.454167 0.891667
vt 0.462500 0.891667
vt 0.458334 0.650000
vt 0.462500 0.650000
vt 0.633334 0.783333
vt 0.633334 0.683333
vt 0.904167 0.758333
vt 0.904167 0.500000
vt 0.495834 0.650000
vt 0.491667 0.666667
vt 0.483334 0.683333
vt 0.670834 0.908333
vt 0.666667 0.908333
vt 0.616667 0.583333
vt 0.700000 0.650000
vt 0.566667 0.616667
vt 0.237500 0.666667
vt 0.241667 0.733333
vt 0.237500 0.733333
vt 0.850000 0.258333
vt 0.850000 0.241667
vt 0.433334 0.033333
vt 0.483334 0.066667
vt 0.466667 0.316667
vt 0.045833 0.733333
vt 0.045833 0.666667
vt 0.600000 0.008333
vt 0.616667 0.258333
vt 0.600000 0.325000
vt 0.550000 0.908333
vt 0.550000 0.650000
vt 0.675000 0.891667
vt 0.670834 0.650000
vt 0.695834 0.650000
vt 0.700000 0.891667
vt 0.695834 0.891667
vt -0.000000 0.700000
vt -0.000000 0.666667
vt 0.133333 0.750000
vt 0.129167 0.666667
vt 0.129167 0.750000
vt 0.366667 0.775000
vt 0.350000 0.791667
vt 0.366667 0.533333
vt 0.970834 0.066667
vt 0.979167 0.066667
vt 0.433334 0.358333
vt 0.483334 0.391667
vt 0.466667 0.641667
vt 0.454167 0.908333
vt 0.916667 0.241667
vt 0.916667 0.258333
vt 0.508334 0.683333
vt 0.495834 0.700000
vt 0.500000 0.683333
vt 0.050000 0.733333
vt 0.050000 0.666667
vt 0.783334 0.758333
vt 0.800000 0.500000
vt 0.800000 0.741667
vt 0.154167 0.750000
vt 0.150000 0.750000
vt 0.283333 0.550000
vt 0.350000 0.550000
vt 0.250000 0.700000
vt 0.266667 0.666667
vt 0.266667 0.700000
vt 0.204167 0.683333
vt 0.204167 0.666667
vt 0.550000 0.683333
vt 0.566667 0.650000
vt 0.566667 0.683333
vt 0.550000 0.783333
vt 0.666667 0.683333
vt 0.350000 0.016667
vt 0.283333 0.016667
vt 0.350000 0.516667
vt 0.766667 0.241667
vt 0.716667 0.241667
vt 0.766667 0.258333
vt 0.133333 0.600000
vt 0.033333 0.666667
vt 0.000000 0.633333
vt 0.000000 0.383333
vt 0.000000 0.283333
vt 0.000000 0.033333
vt 0.033333 0.000000
vt 0.133333 0.000000
vt 0.133333 0.066667
vt 0.050000 0.066667
vt 0.120833 0.750000
vt 0.512500 0.650000
vt 0.870834 0.741667
vt 0.866667 0.741667
vt 0.866667 0.500000
vt 0.883334 0.500000
vt 0.883334 0.741667
vt 0.879167 0.741667
vt 0.883334 0.758333
vt 0.883334 0.825000
vt 0.866667 0.758333
vt 0.966667 1.000000
vt 0.166667 0.316667
vt 0.133333 0.283333
vt 0.133333 0.033333
vt 0.166667 -0.000000
vt 0.266667 0.066667
vt 0.183333 0.600000
vt 0.266667 0.600000
vt 0.133333 0.633333
vt 0.133333 0.383333
vt 0.833334 0.258333
vt 0.833334 0.500000
vt 0.833334 0.000000
vt 0.833334 0.241667
vt 0.783334 0.241667
vt 0.245833 0.750000
vt 0.895834 0.583333
vt 0.900000 0.583333
vt 0.900000 0.825000
vt 0.883334 0.583333
vt 0.887500 0.583333
vt 0.883334 0.566667
vt 0.900000 0.566667
vt 0.150000 0.700000
vt 0.600000 0.900000
vt 0.025000 0.666667
vt 0.433334 -0.000000
vt 0.433334 0.016667
vt 0.366667 0.016667
vt 0.433334 0.516667
vt 0.433334 0.533333
vt 0.691667 0.700000
vt 0.220833 0.683333
vt 0.783334 0.500000
vt 0.783334 0.516667
vt 0.716667 0.758333
vt 0.016667 0.750000
vt 0.900000 0.758333
vt 0.479167 0.666667
vt 0.495834 0.666667
vt 0.491667 0.683333
vt 0.495834 0.683333
vt 0.479167 0.683333
vt 0.483334 0.666667
vt 0.600000 0.333333
vt 0.616667 0.325000
vt 0.700000 0.583333
vt 0.566667 0.366667
vt 0.900000 0.000000
vt 0.433334 0.283333
vt 0.466667 -0.000000
vt 0.566667 0.000000
vt 0.566667 0.066667
vt 0.483334 0.325000
vt 0.466667 0.325000
vt 0.041667 0.733333
vt 0.566667 0.291667
vt 0.566667 0.041667
vt 0.600000 0.000000
vt 0.616667 0.000000
vt 0.700000 0.258333
vt 0.700000 0.325000
vt 0.545834 0.908333
vt 0.670834 0.891667
vt 0.016667 0.700000
vt 0.433333 0.775000
vt 0.433333 0.791667
vt 0.979167 0.600000
vt 0.983334 0.600000
vt 0.983334 0.666667
vt 0.966667 0.666667
vt 0.966667 0.600000
vt 0.970834 0.600000
vt 0.970834 0.583333
vt 0.966667 0.583333
vt 0.966667 0.083333
vt 0.983334 0.083333
vt 0.983334 0.583333
vt 0.979167 0.583333
vt 0.970834 0.083333
vt 0.966667 0.066667
vt 0.966667 -0.000000
vt 0.979167 0.083333
vt 0.983334 0.066667
vt 0.433334 0.608333
vt 0.566667 0.325000
vt 0.566667 0.391667
vt 0.483334 0.650000
vt 0.466667 0.650000
vt 0.450000 0.908333
vt 0.900000 0.241667
vt 0.900000 0.258333
vt 0.500000 0.666667
vt 0.512500 0.666667
vt 0.508334 0.666667
vt 0.512500 0.700000
vt 0.154167 0.666667
vt 0.283333 0.791667
vt 0.266667 0.791667
vt 0.566667 0.783333
s 1
usemtl BarricadePlus_Baked
f 25/1/1 29/2/1 26/3/1
f 46/4/2 36/5/2 38/6/2
f 36/7/3 37/8/3 38/9/3
f 4/10/4 2/11/4 3/12/4
f 16/13/1 14/14/1 15/15/1
f 1/16/5 14/17/6 106/18/7
f 6/19/5 21/20/5 22/21/7
f 44/22/4 42/23/4 43/24/4
f 46/25/1 33/26/1 32/11/1
f 4/27/8 14/28/8 1/29/8
f 31/30/4 35/31/4 36/32/4
f 53/33/8 22/34/8 21/35/8
f 48/36/4 18/37/4 17/38/4
f 10/39/4 11/40/4 12/41/4
f 8/42/3 40/43/3 17/44/3
f 7/45/3 9/46/3 10/47/3
f 46/48/8 42/49/8 45/50/8
f 37/51/2 49/52/2 52/53/9
f 45/54/2 42/55/10 57/56/11
f 8/57/1 6/24/1 7/58/1
f 50/59/12 25/1/12 24/60/12
f 52/35/13 23/61/13 22/62/13
f 31/63/3 12/64/3 29/65/3
f 54/66/12 21/67/12 20/68/12
f 19/69/8 54/70/8 20/71/8
f 38/72/1 39/73/1 40/74/1
f 19/75/13 56/76/13 55/77/13
f 51/69/8 24/78/8 23/79/8
f 10/80/5 4/81/5 7/82/5
f 95/83/3 82/84/3 106/85/3
f 82/39/1 28/86/1 106/87/1
f 34/88/4 95/89/4 27/90/4
f 93/10/8 101/91/8 94/92/8
f 113/93/4 103/94/4 108/16/4
f 127/95/8 92/96/8 91/97/8
f 73/74/2 71/98/2 72/72/2
f 79/99/8 77/100/8 78/101/8
f 62/102/8 60/103/8 59/104/8
f 129/1/2 100/105/2 99/106/2
f 98/70/8 131/97/8 130/96/8
f 67/107/3 65/65/3 66/108/3
f 88/109/5 67/110/14 84/111/5
f 121/59/3 86/112/3 85/113/3
f 71/114/1 89/115/1 91/116/1
f 116/117/2 117/118/2 118/119/2
f 95/120/1 57/121/15 80/65/1
f 98/122/1 65/123/1 96/124/1
f 114/125/5 112/84/5 113/126/5
f 132/127/4 120/128/4 129/129/4
f 72/130/3 74/61/3 75/131/3
f 84/132/8 115/133/8 116/87/8
f 105/134/8 113/135/8 112/136/8
f 126/98/16 93/137/16 92/138/16
f 122/139/5 120/140/5 121/68/5
f 66/32/5 68/141/5 69/30/5
f 116/142/4 121/143/4 84/144/4
f 69/145/3 123/7/3 122/146/3
f 127/147/4 107/148/4 125/149/4
f 107/150/3 103/75/3 102/99/3
f 78/15/5 80/119/5 81/13/5
f 130/60/16 99/106/16 98/78/16
f 106/151/17 117/48/4 82/152/4
f 104/153/18 95/154/19 79/155/2
f 61/156/2 59/126/2 60/157/2
f 72/158/1 79/159/1 78/160/1
f 108/66/2 109/161/2 110/162/2
f 60/163/1 66/5/1 61/164/1
f 132/165/20 97/166/20 96/167/20
f 88/92/8 132/168/8 96/169/8
f 128/170/20 91/171/20 90/172/20
f 90/172/5 124/173/5 128/170/5
f 25/1/1 49/174/1 29/2/1
f 38/6/2 40/80/2 44/175/2
f 38/6/2 44/175/2 43/176/2
f 32/177/2 31/82/2 36/5/2
f 38/6/2 43/176/2 46/4/2
f 46/4/2 32/177/2 36/5/2
f 36/7/3 35/46/3 37/8/3
f 4/10/4 1/25/4 2/11/4
f 16/13/1 13/26/1 14/14/1
f 14/17/5 13/55/5 27/178/5
f 14/17/5 27/178/5 95/179/5
f 28/180/5 2/54/5 1/16/5
f 14/17/5 95/179/5 106/18/5
f 106/18/7 28/180/5 1/16/5
f 6/19/5 5/181/5 17/68/5
f 17/68/5 18/182/5 19/183/5
f 19/183/5 20/184/5 21/20/5
f 22/21/7 23/185/5 24/186/5
f 22/21/7 24/186/5 25/187/5
f 25/187/5 26/188/5 11/189/5
f 25/187/5 11/189/5 9/190/5
f 22/21/7 25/187/5 9/190/5
f 6/19/5 17/68/5 19/183/5
f 22/21/7 9/190/5 6/19/5
f 6/19/5 19/183/5 21/20/5
f 44/22/4 41/118/4 42/23/4
f 46/25/1 45/14/1 33/26/1
f 4/27/8 15/47/8 14/28/8
f 31/30/4 30/191/4 35/31/4
f 53/33/8 52/192/8 22/34/8
f 48/36/4 56/76/4 18/37/4
f 10/39/4 9/134/4 11/40/4
f 3/193/3 2/194/3 28/195/3
f 28/195/3 47/196/3 41/197/3
f 28/195/3 41/197/3 44/198/3
f 3/193/3 28/195/3 44/198/3
f 40/43/3 39/199/3 48/200/3
f 3/193/3 44/198/3 40/43/3
f 17/44/3 5/201/3 8/42/3
f 8/42/3 3/193/3 40/43/3
f 40/43/3 48/200/3 17/44/3
f 7/45/3 6/8/3 9/46/3
f 46/48/8 43/202/8 42/49/8
f 53/203/2 54/204/2 55/205/2
f 55/205/2 56/206/2 48/6/2
f 48/6/2 39/207/2 37/51/2
f 35/208/2 30/209/2 29/166/2
f 55/205/2 48/6/2 37/51/2
f 35/208/2 29/166/2 49/52/2
f 53/203/2 55/205/2 37/51/2
f 50/210/2 51/211/2 52/53/9
f 52/53/9 53/203/2 37/51/2
f 37/51/2 35/208/2 49/52/2
f 49/52/2 50/210/2 52/53/9
f 34/212/2 33/213/2 45/54/2
f 42/55/2 41/214/2 47/215/2
f 42/55/2 47/215/2 82/216/2
f 57/56/11 34/212/2 45/54/2
f 42/55/2 82/216/2 57/56/2
f 8/57/1 5/217/1 6/24/1
f 50/59/12 49/174/12 25/1/12
f 52/35/13 51/34/13 23/61/13
f 32/218/3 33/219/3 34/220/3
f 34/220/3 27/200/3 13/221/3
f 34/220/3 13/221/3 16/222/3
f 32/218/3 34/220/3 16/222/3
f 12/64/3 11/223/3 26/196/3
f 32/218/3 16/222/3 12/64/3
f 29/65/3 30/224/3 31/63/3
f 31/63/3 32/218/3 12/64/3
f 12/64/3 26/196/3 29/65/3
f 54/66/12 53/225/12 21/67/12
f 19/69/8 55/226/8 54/70/8
f 38/72/1 37/227/1 39/73/1
f 19/75/13 18/37/13 56/76/13
f 51/69/8 50/71/8 24/78/8
f 10/80/5 12/228/5 16/229/5
f 10/80/5 16/229/5 15/230/5
f 3/231/5 8/232/5 7/82/5
f 10/80/5 15/230/5 4/81/5
f 4/81/5 3/231/5 7/82/5
f 95/83/3 57/227/3 82/84/3
f 82/39/1 47/233/1 28/86/1
f 34/88/4 57/104/4 95/89/4
f 93/10/8 125/234/8 101/91/8
f 108/16/4 110/235/4 114/236/4
f 113/93/4 104/237/4 103/94/4
f 108/16/4 114/236/4 113/93/4
f 127/95/8 126/171/8 92/96/8
f 73/74/2 70/238/2 71/98/2
f 79/99/8 76/103/8 77/100/8
f 62/102/8 63/100/8 60/103/8
f 129/1/2 123/3/2 100/105/2
f 98/70/8 97/226/8 131/97/8
f 67/107/3 64/239/3 65/65/3
f 86/240/21 87/89/5 88/109/5
f 88/109/5 64/241/5 67/110/14
f 63/242/14 62/243/5 57/154/22
f 63/242/14 57/154/22 82/90/5
f 82/90/22 83/244/5 84/111/5
f 85/245/23 86/240/21 88/109/5
f 63/242/14 82/90/22 84/111/5
f 84/111/5 85/245/23 88/109/5
f 67/110/14 63/242/14 84/111/5
f 121/59/3 120/133/3 86/112/3
f 93/246/1 94/129/1 74/247/1
f 71/114/1 70/248/1 89/115/1
f 93/246/1 74/247/1 71/114/1
f 91/116/1 92/249/1 93/246/1
f 89/115/1 90/70/1 91/116/1
f 91/116/1 93/246/1 71/114/1
f 116/117/2 115/23/2 117/118/2
f 57/121/24 62/215/1 59/214/1
f 59/214/1 58/250/1 80/65/1
f 80/65/1 77/213/1 76/212/1
f 80/65/1 76/212/1 95/120/1
f 57/121/24 59/214/1 80/65/1
f 96/124/1 97/251/1 98/122/1
f 98/122/1 99/252/1 100/253/1
f 100/253/1 68/254/1 65/123/1
f 65/123/1 64/255/1 88/256/1
f 65/123/1 88/256/1 96/124/1
f 98/122/1 100/253/1 65/123/1
f 114/125/5 111/257/5 112/84/5
f 129/129/4 130/258/4 131/259/4
f 132/127/4 87/260/4 86/261/4
f 129/129/4 131/259/4 132/127/4
f 119/262/4 123/263/4 129/129/4
f 132/127/4 86/261/4 120/128/4
f 120/128/4 119/262/4 129/129/4
f 72/130/3 71/264/3 74/61/3
f 84/132/8 83/265/8 115/133/8
f 105/134/8 104/115/8 113/135/8
f 126/98/16 125/266/16 93/137/16
f 122/139/5 119/141/5 120/140/5
f 66/32/5 65/140/5 68/141/5
f 116/142/4 118/267/4 122/268/4
f 121/143/4 85/82/4 84/144/4
f 116/142/4 122/268/4 121/143/4
f 110/269/3 109/270/3 124/271/3
f 124/271/3 89/272/3 70/273/3
f 124/271/3 70/273/3 73/274/3
f 110/269/3 124/271/3 73/274/3
f 81/275/3 80/276/3 58/277/3
f 110/269/3 73/274/3 81/275/3
f 117/278/3 111/279/3 114/280/3
f 114/280/3 110/269/3 81/275/3
f 81/275/3 58/277/3 61/281/3
f 69/145/3 68/282/3 100/283/3
f 81/275/3 61/281/3 69/145/3
f 117/278/3 114/280/3 81/275/3
f 118/284/3 117/278/3 81/275/3
f 69/145/3 100/283/3 123/7/3
f 118/284/3 81/275/3 69/145/3
f 123/7/3 119/285/3 122/146/3
f 122/146/3 118/284/3 69/145/3
f 125/149/4 126/286/4 127/147/4
f 127/147/4 128/256/4 124/287/4
f 124/287/4 109/288/4 107/148/4
f 107/148/4 102/289/4 101/290/4
f 107/148/4 101/290/4 125/149/4
f 127/147/4 124/287/4 107/148/4
f 107/150/3 108/291/3 103/75/3
f 78/15/5 77/117/5 80/119/5
f 130/60/16 129/1/16 99/106/16
f 106/151/25 105/292/4 112/250/4
f 112/250/4 111/283/4 117/48/25
f 117/48/4 115/65/4 83/293/4
f 117/48/4 83/293/4 82/152/4
f 106/151/25 112/250/4 117/48/25
f 75/294/2 74/241/2 94/109/26
f 94/109/26 101/192/2 102/295/27
f 94/109/26 102/295/27 103/296/28
f 75/294/2 94/109/26 103/296/28
f 104/153/18 105/33/2 106/297/19
f 75/294/2 103/296/28 104/153/18
f 95/154/19 76/243/2 79/155/2
f 79/155/2 75/294/2 104/153/18
f 104/153/18 106/297/19 95/154/2
f 61/156/2 58/125/2 59/126/2
f 81/194/1 73/201/1 72/158/1
f 72/158/1 75/235/1 79/159/1
f 78/160/1 81/194/1 72/158/1
f 108/66/2 107/298/2 109/161/2
f 60/163/1 63/299/1 67/300/1
f 66/5/1 69/82/1 61/164/1
f 60/163/1 67/300/1 66/5/1
f 132/165/20 131/58/20 97/166/20
f 88/92/8 87/91/8 132/168/8
f 128/170/20 127/131/20 91/171/20
f 90/172/5 89/301/5 124/173/5
